<?xml version="1.0" standalone="no"?>
<!DOCTYPE svg PUBLIC "-//W3C//DTD SVG 20010904//EN"
 "http://www.w3.org/TR/2001/REC-SVG-20010904/DTD/svg10.dtd">
<svg version="1.0" xmlns="http://www.w3.org/2000/svg"
 width="512.000000pt" height="512.000000pt" viewBox="0 0 512.000000 512.000000"
 preserveAspectRatio="xMidYMid meet">
<metadata>
Created by potrace 1.16, written by Peter Selinger 2001-2019
</metadata>
<g transform="translate(0.000000,512.000000) scale(0.100000,-0.100000)"
fill="#000000" stroke="none">
<path d="M3723 4834 c-6 -17 14 -36 32 -31 6 2 11 13 13 25 3 17 -2 22 -18 22
-11 0 -23 -7 -27 -16z"/>
<path d="M1885 4821 c-208 -75 -422 -240 -521 -403 -39 -65 -74 -159 -73 -197
0 -15 7 -2 15 31 35 145 143 286 319 416 50 37 197 114 305 160 40 17 10 12
-45 -7z"/>
<path d="M3843 4816 c-23 -7 -63 -25 -89 -40 l-47 -27 -34 33 c-33 32 -34 32
-120 29 -116 -3 -120 -11 -7 -11 89 0 91 0 122 -33 l32 -33 -28 -27 c-53 -50
-77 -113 -77 -197 0 -89 22 -141 97 -224 26 -30 48 -62 49 -73 0 -10 5 -27 10
-38 7 -15 8 -10 5 22 -3 33 -14 54 -50 95 -96 109 -123 219 -79 318 27 61 73
114 86 101 8 -8 3 -19 -15 -38 -62 -65 -86 -181 -53 -260 18 -43 38 -67 80
-96 23 -16 19 -9 -17 30 -73 79 -86 169 -39 262 63 122 250 179 378 116 62
-31 122 -94 159 -167 29 -56 38 -144 21 -218 -7 -30 -6 -32 4 -15 7 10 14 51
17 90 5 94 -21 165 -90 241 -75 81 -133 109 -233 109 -68 0 -88 -4 -134 -28
-40 -20 -57 -25 -65 -17 -13 14 9 33 74 63 34 17 64 22 125 22 71 0 88 -4 147
-33 165 -81 255 -260 214 -422 -21 -80 -13 -92 10 -14 50 171 -45 368 -218
453 -75 37 -170 48 -235 27z"/>
<path d="M2476 4809 c-313 -25 -686 -145 -882 -285 -122 -86 -207 -213 -234
-349 -24 -119 9 -249 86 -334 l46 -51 -11 -69 c-6 -39 -11 -86 -11 -105 0 -20
-4 -36 -9 -36 -9 0 -260 261 -315 326 -23 28 -26 41 -26 103 l0 71 53 1 52 1
-44 9 c-24 4 -50 14 -57 20 -11 9 -18 9 -26 1 -7 -7 -44 -12 -90 -12 -104 0
-100 -18 5 -22 l82 -3 3 -69 3 -70 77 -85 c133 -148 236 -253 263 -270 l27
-16 -19 -60 c-34 -107 -49 -194 -39 -221 6 -14 28 -52 51 -85 30 -45 45 -59
57 -54 10 4 6 -5 -11 -22 -33 -35 -34 -45 -4 -41 12 2 29 -3 37 -9 8 -7 23
-19 34 -26 17 -12 17 -17 6 -53 -7 -21 -39 -92 -71 -156 -33 -65 -59 -127 -59
-139 0 -30 50 -75 101 -90 24 -7 45 -13 46 -14 2 -1 -6 -27 -17 -58 -24 -69
-25 -77 -2 -77 22 0 62 -82 62 -126 0 -17 14 -58 30 -90 29 -56 30 -62 19
-113 -18 -85 -8 -163 27 -213 48 -68 88 -82 237 -86 151 -4 146 0 156 -132 7
-74 12 -93 38 -130 l30 -44 -25 -63 -26 -63 -270 -176 c-149 -97 -288 -192
-309 -213 -100 -95 -134 -210 -216 -718 -48 -297 -48 -295 -19 -291 18 3 24
15 38 83 10 44 31 133 48 197 33 122 66 321 60 360 -2 12 -21 -69 -43 -180
-22 -111 -41 -196 -43 -188 -4 19 53 356 79 465 24 105 69 197 117 243 20 20
116 86 212 148 l175 112 -79 -81 c-63 -65 -77 -85 -72 -104 4 -19 -3 -26 -50
-51 -64 -33 -93 -72 -124 -161 -28 -79 -88 -311 -149 -570 -67 -287 -65 -275
-48 -275 9 0 19 26 31 83 36 169 147 615 178 711 17 54 43 112 57 129 14 17
59 45 101 64 76 35 206 121 196 130 -3 3 -20 -4 -38 -15 -18 -11 -54 -30 -81
-41 -42 -18 -47 -19 -47 -4 0 14 270 287 277 280 1 -2 -2 -20 -7 -42 -5 -22
-14 -110 -20 -194 -10 -138 -15 -161 -40 -212 -60 -118 -150 -409 -220 -708
-22 -96 -40 -176 -40 -177 0 -2 44 -4 98 -4 l97 0 73 303 c58 238 75 324 79
406 4 60 9 96 13 85 16 -43 -14 -267 -55 -408 -8 -28 -32 -126 -53 -218 -38
-165 -39 -168 -18 -168 19 0 35 44 154 403 127 384 144 449 123 462 -5 3 -9
-7 -9 -23 1 -34 -186 -603 -190 -580 -2 9 20 105 48 214 28 110 54 235 57 279
6 75 9 83 47 129 23 27 78 87 123 133 l82 84 30 -33 29 -33 59 28 c83 41 204
110 199 115 -3 2 -62 -24 -132 -57 -70 -34 -128 -61 -130 -61 -1 0 -10 22 -19
50 -12 35 -35 69 -78 114 l-62 64 147 78 c81 43 146 80 144 82 -9 9 -86 -23
-203 -84 l-123 -63 0 38 c0 73 -24 155 -72 248 -26 52 -48 103 -48 114 0 24
23 72 57 116 26 36 164 106 198 101 34 -5 29 -58 -24 -251 -65 -235 -72 -276
-23 -152 22 55 60 145 84 200 25 55 51 119 58 142 10 33 33 60 103 125 111
102 224 250 265 350 28 67 62 216 62 272 0 11 5 38 10 58 l11 37 62 0 c34 0
74 4 89 10 15 6 30 6 33 2 3 -5 19 -71 36 -147 56 -249 112 -412 145 -422 8
-2 13 48 17 170 5 214 12 235 146 462 214 361 254 530 255 1076 1 135 5 251 9
258 6 8 40 12 113 12 l104 0 0 -67 0 -66 -60 -56 -60 -56 0 -132 0 -131 -30
-11 -30 -10 0 -94 c0 -81 3 -98 21 -121 12 -15 24 -25 26 -22 3 3 -4 17 -16
32 -17 22 -21 40 -21 105 0 84 15 115 51 104 18 -6 19 1 19 139 l0 145 55 48
56 47 -3 81 -3 80 -104 3 c-152 4 -145 14 -137 -223 3 -106 1 -230 -4 -280 -6
-49 -15 -135 -20 -190 -18 -167 -54 -300 -120 -432 -70 -142 -106 -192 -166
-231 -57 -38 -142 -61 -155 -41 -11 18 0 29 82 84 196 133 290 410 293 860 1
83 -2 162 -7 177 -7 27 -52 66 -63 55 -3 -3 -1 -48 5 -101 14 -123 15 -476 1
-476 -6 0 -10 57 -10 153 0 166 -18 407 -31 421 -19 21 -20 -8 -4 -136 10 -86
13 -149 7 -178 -4 -25 -4 -95 2 -157 8 -98 7 -115 -7 -137 -10 -14 -17 -44
-17 -66 0 -36 -22 -110 -33 -110 -2 0 -2 37 1 83 3 66 8 85 23 96 17 12 19 27
19 123 l0 110 -57 -48 c-32 -27 -62 -51 -67 -55 -4 -4 1 -34 12 -66 46 -133
49 -282 6 -365 -41 -81 -181 -248 -207 -248 -5 0 24 35 65 78 91 97 134 175
148 269 9 58 9 80 -3 115 -8 24 -12 57 -10 75 3 21 -3 50 -20 86 l-25 55 61
48 c34 27 67 60 74 74 28 56 1 376 -43 508 -23 70 -62 144 -84 157 -15 10 -13
2 26 -75 19 -39 42 -101 50 -138 17 -81 40 -399 30 -436 -4 -18 -25 -38 -61
-62 -72 -45 -85 -50 -85 -30 0 9 8 20 18 23 39 15 37 43 -4 43 -39 0 -28 26
20 50 24 11 50 28 57 36 17 21 23 189 10 283 -14 93 -48 199 -88 273 -30 56
-140 178 -161 178 -8 0 -12 -23 -12 -78 l0 -78 35 -17 c26 -12 37 -25 42 -48
5 -24 10 -30 25 -25 11 2 31 1 44 -4 19 -8 24 -17 24 -44 0 -18 12 -65 26
-102 21 -54 27 -93 32 -182 6 -133 -1 -152 -65 -183 -37 -18 -44 -26 -49 -60
-8 -49 -28 -46 -32 5 -4 44 16 72 58 81 39 8 49 23 52 76 l3 44 -58 3 c-67 3
-89 -8 -85 -47 3 -24 0 -26 -39 -26 -27 0 -43 5 -43 12 0 6 -4 15 -10 18 -6 4
-10 -6 -10 -24 0 -28 3 -30 45 -37 33 -4 45 -11 45 -23 0 -15 -10 -17 -62 -17
-50 0 -74 -6 -116 -28 -59 -32 -89 -30 -128 10 l-25 24 7 198 c5 145 10 201
20 213 29 32 17 39 -71 39 -47 0 -85 -2 -85 -5 0 -3 16 -34 35 -71 19 -36 35
-79 35 -95 0 -24 4 -29 26 -29 36 0 29 -34 -8 -38 -31 -4 -42 12 -51 72 -8 48
-31 84 -63 96 -20 8 -24 16 -24 50 0 56 17 61 200 53 l150 -6 0 75 0 76 -31 6
c-75 15 -89 8 -99 -54 l-6 -35 -101 3 c-99 4 -103 3 -129 -23 -25 -25 -26 -31
-22 -105 3 -69 6 -82 26 -96 46 -32 82 -142 82 -250 0 -40 6 -64 20 -84 36
-50 60 -114 60 -160 0 -53 -17 -120 -30 -120 -6 0 -19 -9 -30 -20 -17 -17 -20
-34 -21 -112 0 -61 -3 -86 -9 -73 -11 27 -12 101 0 149 6 30 5 45 -5 60 -22
31 -1 96 32 96 10 0 8 -8 -8 -29 -12 -16 -19 -37 -16 -45 8 -19 18 -20 41 -3
14 10 18 27 19 73 0 59 -13 97 -56 158 -20 28 -21 28 -28 8 -4 -12 -11 -119
-15 -238 -5 -153 -10 -211 -17 -193 -9 23 -2 361 9 444 5 36 1 45 -32 84 -47
54 -103 80 -172 81 -52 0 -90 12 -104 34 -4 6 -8 33 -8 59 0 26 -7 64 -15 84
-31 73 -11 134 34 106 17 -11 17 -17 5 -141 -8 -91 7 -112 84 -112 73 0 148
-35 197 -93 19 -22 38 -38 41 -34 12 12 -18 164 -40 203 l-22 39 -93 5 c-112
6 -121 14 -121 107 0 56 -3 64 -26 80 -39 25 -125 19 -230 -18 -247 -86 -367
-116 -179 -44 191 74 292 105 335 105 59 0 105 -23 121 -59 13 -30 16 -31 75
-31 l62 0 4 55 c6 74 34 105 95 105 l43 0 0 39 c0 49 -31 77 -94 86 -36 6 -59
0 -140 -34 -53 -22 -131 -49 -172 -61 -79 -21 -165 -61 -250 -115 -74 -48
-179 -100 -259 -130 -38 -14 -85 -35 -103 -46 -18 -10 -30 -14 -27 -8 10 15
147 102 162 102 7 0 10 3 8 7 -3 4 43 45 100 91 58 45 103 84 101 86 -7 7 -98
-18 -134 -36 -94 -48 -273 -232 -315 -323 -12 -27 -25 -48 -28 -48 -8 0 -17
66 -25 182 -11 171 27 293 125 401 29 31 50 57 47 57 -3 0 -26 -10 -51 -22
-36 -18 -47 -20 -58 -9 -18 19 27 52 158 116 132 65 275 113 450 151 118 26
149 28 332 29 111 0 195 4 187 8 -26 15 -324 9 -429 -7 -129 -21 -409 -90
-493 -122 -146 -55 -261 -144 -310 -240 -45 -90 -55 -141 -50 -263 3 -106 3
-112 -8 -66 -40 166 10 330 136 448 73 70 163 120 294 166 267 94 581 138 793
112 180 -22 364 -90 511 -188 250 -166 414 -457 437 -774 10 -136 -18 -399
-61 -567 -59 -231 -129 -347 -266 -438 -62 -42 -70 -49 -49 -52 40 -6 109 27
159 76 60 59 151 232 187 358 28 94 63 358 72 535 14 280 -91 551 -296 762
-232 240 -584 357 -975 326z m-974 -530 c-31 -84 -16 -227 33 -317 l25 -47
-25 30 c-56 67 -79 211 -51 309 10 32 19 56 22 53 2 -2 1 -15 -4 -28z m-35
-281 c12 -26 43 -71 70 -100 41 -44 43 -49 15 -29 -64 44 -134 178 -131 250 0
17 5 8 13 -24 7 -27 22 -71 33 -97z m-90 100 c-3 -8 -6 -5 -6 6 -1 11 2 17 5
13 3 -3 4 -12 1 -19z m53 -158 c12 -25 36 -62 52 -83 16 -20 23 -35 15 -31
-39 15 -119 171 -116 228 0 12 6 1 13 -24 7 -25 23 -65 36 -90z m822 20 c49
-14 94 -53 119 -103 25 -48 27 -148 5 -220 -13 -44 -13 -49 2 -54 130 -44 185
-101 180 -183 -1 -31 4 -46 24 -67 39 -41 48 -74 48 -173 0 -79 3 -92 24 -117
14 -16 42 -37 64 -47 l39 -18 6 -181 c7 -197 2 -240 -38 -293 -34 -45 -78 -62
-206 -79 -63 -8 -115 -15 -116 -15 -6 0 -3 230 4 260 4 24 18 41 51 64 80 54
119 95 140 144 34 82 34 110 -1 37 -35 -72 -69 -109 -149 -160 -26 -16 -52
-40 -57 -53 -6 -13 -11 -85 -11 -162 l0 -140 -62 -31 -61 -31 7 149 c3 81 12
177 19 213 l13 65 74 52 c85 60 162 137 190 194 33 64 22 66 -18 3 -44 -67
-101 -122 -188 -181 -33 -22 -65 -47 -71 -55 -21 -24 -35 -149 -34 -298 l1
-145 -59 -47 c-33 -26 -62 -44 -64 -40 -2 4 -15 39 -27 77 -19 57 -34 82 -84
134 -68 70 -88 83 -190 117 -81 28 -113 30 -143 9 -20 -14 -23 -14 -32 4 -6
11 -32 27 -58 37 -75 28 -103 51 -103 85 0 16 29 88 65 160 126 251 130 275
62 348 -50 53 -64 103 -53 183 5 37 4 39 -5 18 -6 -14 -11 -51 -12 -83 -2 -57
-2 -58 -27 -52 -14 4 -35 13 -47 21 -31 20 -31 93 0 176 14 38 26 97 30 148 4
47 11 102 17 122 10 35 12 36 43 27 55 -16 88 -10 146 25 129 77 257 128 380
150 95 18 117 18 163 6z m270 -232 c3 -31 6 -33 45 -39 81 -10 143 -104 142
-214 0 -43 -3 -54 -9 -40 -5 11 -9 33 -9 49 -3 91 -70 186 -132 186 -19 0 -40
5 -47 12 -9 9 -12 9 -12 -3 0 -18 28 -44 86 -81 52 -34 71 -74 79 -173 4 -44
13 -105 21 -136 8 -31 14 -98 14 -148 0 -86 1 -91 25 -107 14 -9 25 -20 25
-25 0 -10 -50 19 -62 36 -4 5 -8 51 -8 100 0 57 -8 117 -20 164 -11 41 -20
101 -20 133 0 73 -17 107 -72 143 -72 46 -88 65 -88 102 0 65 36 100 42 41z
m728 -220 c38 -12 130 -94 159 -142 37 -62 32 -79 -6 -21 -70 106 -154 159
-254 158 -134 -2 -261 -129 -304 -303 -19 -79 -28 -92 -19 -27 12 82 25 119
69 186 96 148 207 195 355 149z m-26 -52 c72 -22 114 -60 149 -134 56 -119 40
-251 -45 -384 -75 -119 -150 -180 -235 -194 -55 -8 -111 17 -126 56 -20 53
-35 36 -42 -47 -26 -324 -37 -367 -113 -446 -44 -46 -182 -147 -182 -134 0 3
31 28 69 57 177 131 213 238 155 457 -18 67 -28 135 -31 215 l-6 118 40 43
c35 38 43 57 62 136 11 50 30 110 42 132 32 64 93 115 152 129 48 12 60 11
111 -4z m276 -21 c0 -2 -7 -5 -15 -9 -9 -3 -15 0 -15 9 0 9 6 12 15 9 8 -4 15
-7 15 -9z m20 -85 c0 -5 -4 -10 -10 -10 -5 0 -10 5 -10 10 0 6 5 10 10 10 6 0
10 -4 10 -10z m-630 -142 c-7 -29 -18 -64 -25 -78 -16 -31 -53 -65 -62 -57 -3
4 5 17 19 30 15 14 35 54 49 95 26 82 37 88 19 10z m-1381 -17 c9 -6 10 -11 2
-15 -13 -8 -31 1 -31 15 0 11 11 11 29 0z m67 -112 c19 -22 19 -22 -3 -10 -13
6 -23 16 -23 21 0 15 5 12 26 -11z m1922 -85 c-18 -31 -55 -79 -81 -107 l-48
-52 52 70 c28 38 63 93 78 123 16 33 27 48 29 37 2 -9 -11 -41 -30 -71z
m-1857 -497 c-5 -14 -7 -28 -4 -31 10 -9 51 -7 57 3 3 5 23 0 44 -10 21 -10
73 -23 117 -29 74 -9 82 -13 123 -53 l44 -42 -7 -67 c-11 -121 -31 -157 -85
-158 -55 0 -117 65 -95 100 4 7 -8 28 -29 49 l-36 37 50 18 c66 24 58 32 -11
12 -29 -9 -72 -16 -96 -16 -42 0 -44 1 -41 27 4 37 40 45 165 38 64 -4 103 -3
107 4 11 18 -75 35 -179 37 -70 0 -99 4 -97 12 1 7 -7 12 -18 12 -27 0 -35 24
-20 61 15 36 25 33 11 -4z m1115 -16 c-20 -37 -46 -55 -174 -121 -137 -70
-209 -124 -281 -212 -114 -140 -128 -150 -46 -33 74 105 168 184 290 245 146
72 189 103 206 141 7 18 15 27 17 21 2 -6 -4 -24 -12 -41z m104 -190 c-11 -16
-42 -48 -68 -71 -97 -87 -449 -276 -597 -323 -126 -40 -171 -42 -59 -3 127 43
249 101 429 200 148 83 225 135 278 191 39 42 45 44 17 6z m-655 -838 c9 -32
27 -79 40 -104 l23 -46 -64 1 c-35 1 -64 5 -64 9 0 13 43 197 46 197 1 0 10
-26 19 -57z m196 -311 c-14 -26 -145 -148 -173 -162 -13 -6 22 32 77 85 55 52
101 95 103 95 1 0 -2 -8 -7 -18z m-1034 -939 c-3 -10 -5 -2 -5 17 0 19 2 27 5
18 2 -10 2 -26 0 -35z"/>
<path d="M2236 3783 c-13 -160 -9 -205 25 -257 16 -27 33 -46 36 -43 3 3 -4
18 -15 34 -34 48 -42 99 -35 225 7 131 0 161 -11 41z"/>
<path d="M1785 3706 c-33 -13 -82 -33 -108 -45 -27 -11 -60 -21 -73 -21 -26 0
-32 -15 -10 -23 12 -5 80 21 271 103 l20 9 -20 0 c-11 0 -47 -10 -80 -23z"/>
<path d="M1970 3573 c-73 -11 -227 -60 -218 -69 2 -2 38 8 80 21 41 13 115 29
164 36 49 6 91 13 93 15 5 5 -84 3 -119 -3z"/>
<path d="M2175 3493 c6 -5 33 -22 60 -37 28 -15 41 -20 30 -11 -22 19 -106 63
-90 48z"/>
<path d="M1900 3436 c-63 -30 -139 -64 -169 -75 l-54 -20 6 66 c3 48 2 62 -5
49 -6 -10 -12 -44 -15 -77 -6 -56 -5 -59 30 -94 22 -22 45 -35 61 -35 14 0 87
32 162 71 l136 71 92 -16 c50 -10 102 -20 116 -23 22 -5 21 -3 -10 21 -39 30
-205 116 -224 116 -6 0 -63 -25 -126 -54z"/>
<path d="M1876 3285 l-29 -27 28 -22 c28 -23 30 -41 10 -88 -6 -16 0 -18 66
-18 64 0 81 5 129 32 30 17 71 34 90 37 34 6 32 8 -50 34 -47 14 -104 29 -128
33 -23 4 -45 11 -48 15 -8 14 117 10 176 -5 69 -18 76 -13 13 9 -26 9 -88 19
-138 21 -86 5 -91 4 -119 -21z m180 -66 c3 -6 -1 -18 -10 -27 -15 -15 -16 -14
-16 11 0 27 13 36 26 16z m-93 -31 c10 -16 15 -28 13 -28 -11 0 -36 33 -36 47
0 9 1 14 3 12 2 -2 11 -16 20 -31z m154 24 c15 -9 -83 -62 -113 -62 -13 1 -9
5 13 15 18 7 38 23 45 34 13 22 34 26 55 13z"/>
<path d="M2422 3122 c-6 -75 -94 -182 -185 -226 -86 -40 -90 -49 -82 -158 7
-76 10 -87 17 -63 4 17 5 49 2 72 -10 71 0 89 66 123 115 58 195 160 187 237
-2 21 -4 28 -5 15z"/>
<path d="M1743 3003 c-53 -89 -69 -123 -60 -123 10 0 119 189 115 200 -2 6
-27 -29 -55 -77z"/>
<path d="M1920 3071 c0 -14 67 -52 108 -62 37 -8 117 5 127 21 3 5 -12 4 -32
-2 -53 -15 -117 -5 -163 26 -22 14 -40 22 -40 17z"/>
<path d="M2175 2990 c-27 -17 -62 -30 -77 -30 -16 0 -28 -5 -28 -11 0 -32 140
21 155 59 6 15 9 16 -50 -18z"/>
<path d="M2680 2932 c0 -27 -9 -50 -30 -78 l-29 -39 -1 -157 c0 -172 4 -162
-70 -191 l-45 -17 45 5 c25 3 55 13 68 21 21 14 22 20 22 175 l0 161 30 35
c24 27 30 43 30 78 0 25 -4 45 -10 45 -5 0 -10 -17 -10 -38z"/>
<path d="M1870 2769 c17 -25 52 -66 77 -90 63 -60 26 -7 -52 76 -55 58 -56 59
-25 14z"/>
<path d="M1727 2793 c42 -3 56 -9 73 -30 26 -33 26 -83 -1 -117 -23 -29 -11
-36 14 -8 27 29 22 103 -8 136 -21 22 -31 26 -77 24 l-53 -2 52 -3z"/>
<path d="M1603 2684 c-34 -17 -43 -33 -20 -35 6 -1 34 -1 60 1 27 1 62 -4 78
-11 26 -10 33 -10 47 5 16 16 16 18 -7 37 -29 24 -112 25 -158 3z"/>
<path d="M3105 3439 c-82 -24 -153 -129 -162 -241 -6 -75 5 -69 31 15 28 95
111 167 191 167 45 0 109 -34 137 -71 51 -69 62 -132 46 -264 l-7 -60 20 43
c30 64 36 169 14 243 -11 34 -25 63 -32 66 -7 3 -10 9 -7 14 9 16 -53 66 -103
83 -51 18 -82 19 -128 5z"/>
<path d="M3122 3320 c-68 -42 -89 -147 -41 -202 11 -13 18 -17 14 -10 -3 6 -2
12 3 12 13 0 39 -32 47 -58 11 -38 30 -19 33 35 3 54 7 49 -78 113 l-25 18 21
29 c32 44 69 58 115 44 86 -26 124 -159 75 -263 -10 -20 -43 -64 -74 -99 -59
-65 -47 -67 26 -4 133 115 121 340 -21 394 -40 15 -57 14 -95 -9z"/>
<path d="M3189 3259 c52 -49 66 -141 31 -208 -22 -43 -105 -121 -129 -121 -10
0 -1 12 22 31 48 39 49 69 4 103 -56 43 -105 30 -73 -19 21 -32 20 -51 -5 -86
-17 -24 -18 -33 -9 -44 54 -65 239 116 240 233 0 64 -46 132 -89 132 -10 0 -8
-6 8 -21z"/>
<path d="M3411 4731 c-25 -25 -27 -49 -5 -79 29 -41 104 -22 104 26 0 59 -61
91 -99 53z m73 -17 c9 -8 16 -22 16 -29 0 -16 -27 -45 -41 -45 -24 0 -49 22
-49 43 0 44 43 62 74 31z"/>
<path d="M3025 4656 c133 -51 220 -104 328 -198 37 -33 67 -55 67 -50 0 15
-105 101 -193 159 -71 47 -220 114 -250 113 -7 -1 15 -11 48 -24z"/>
<path d="M2375 4634 c-155 -27 -295 -80 -426 -160 -44 -26 -64 -33 -72 -25 -8
8 -6 16 8 31 28 31 7 24 -47 -17 -63 -48 -130 -137 -159 -211 -25 -64 -37
-236 -22 -307 8 -36 10 -30 20 69 10 90 17 121 44 173 42 83 108 149 217 216
207 129 331 170 545 183 135 9 119 -5 -20 -17 -59 -5 -145 -18 -190 -29 -79
-19 -247 -92 -260 -113 -4 -7 0 -8 12 -4 33 13 200 37 260 37 93 1 261 55 294
94 44 52 429 -34 504 -112 15 -16 32 -44 37 -63 11 -37 14 -277 4 -303 -5 -12
-21 -16 -65 -16 -46 0 -59 -3 -59 -15 0 -11 11 -15 36 -15 54 0 37 -24 -22
-30 l-49 -5 0 -115 c0 -72 -5 -123 -13 -137 -16 -29 -15 -66 2 -108 21 -50 52
-54 121 -15 69 40 75 69 18 97 -76 37 -105 129 -66 210 63 134 265 71 265 -82
l0 -46 46 3 47 3 -3 50 c-2 28 -17 88 -32 135 -24 72 -32 85 -52 88 -62 7 -68
11 -68 46 0 27 -7 39 -35 60 l-35 27 0 125 c0 68 3 124 8 124 4 0 24 -12 45
-26 58 -39 68 -22 12 19 -120 86 -277 153 -428 182 -99 19 -313 18 -422 -1z"/>
<path d="M3835 4586 c-42 -18 -81 -67 -89 -110 -9 -50 22 -119 66 -146 41 -25
109 -26 148 -3 63 37 89 137 50 200 -37 61 -114 87 -175 59z m93 -88 c7 -7 12
-24 12 -38 0 -34 -17 -50 -52 -50 -27 0 -48 23 -48 54 0 37 61 61 88 34z"/>
<path d="M2595 4530 c-11 -12 -60 -41 -110 -65 -89 -42 -92 -43 -220 -48 -282
-12 -441 -92 -530 -269 -46 -93 -45 -119 3 -39 20 35 60 89 89 120 47 51 53
55 73 43 18 -11 25 -10 47 8 51 40 118 52 313 59 l185 6 95 45 c91 43 97 45
182 44 113 -2 136 -8 149 -41 8 -21 6 -30 -11 -48 -20 -22 -26 -75 -14 -122 5
-18 14 -23 39 -23 30 0 33 3 40 36 5 30 13 39 46 53 46 19 50 42 17 91 -33 48
-102 80 -195 91 -103 12 -128 6 -258 -54 l-110 -52 -185 -2 c-177 -2 -183 -1
-140 13 25 9 106 19 180 23 l135 8 115 57 115 58 85 -5 c151 -7 275 -78 302
-171 13 -44 23 -56 51 -56 23 0 23 59 1 106 -30 63 -219 136 -393 150 -70 6
-78 5 -96 -16z"/>
<path d="M975 4461 c-41 -18 -68 -59 -73 -109 -2 -28 0 -52 6 -56 6 -3 9 13 9
44 -1 42 4 55 28 80 23 24 37 30 71 30 35 0 47 -5 69 -32 23 -27 26 -39 22
-76 -3 -32 -2 -41 6 -33 7 7 12 29 12 51 0 71 -87 129 -150 101z"/>
<path d="M962 4397 c-15 -16 -22 -35 -21 -63 0 -21 3 -33 6 -27 4 10 10 10 26
-2 29 -20 50 -19 70 3 22 24 22 39 1 18 -22 -22 -61 -20 -74 4 -14 26 -5 57
21 71 28 15 66 -11 78 -54 l9 -32 1 33 c2 65 -73 96 -117 49z"/>
<path d="M2640 4393 c-8 -3 -55 -24 -105 -47 l-90 -41 -160 2 c-184 3 -244 -6
-336 -53 -70 -35 -128 -92 -170 -168 l-23 -41 45 40 c62 57 169 132 220 154
40 18 229 41 229 29 0 -3 -46 -33 -102 -67 -57 -34 -119 -76 -138 -92 l-35
-31 55 32 c115 66 278 140 355 161 44 12 119 39 166 60 113 51 137 55 200 35
54 -18 79 -16 79 7 0 21 -144 36 -190 20z"/>
<path d="M3369 4374 c-20 -24 2 -50 39 -47 25 2 37 -4 61 -34 32 -39 39 -67
20 -79 -7 -4 0 -18 19 -38 16 -17 44 -57 62 -88 34 -61 36 -63 60 -48 13 8 9
20 -22 82 -21 40 -60 98 -88 128 -28 30 -67 74 -87 98 -39 47 -45 49 -64 26z"/>
<path d="M940 4278 c-1 -7 -55 -67 -120 -133 -103 -103 -120 -125 -120 -152 0
-17 5 -35 10 -38 6 -3 10 -16 10 -28 0 -13 7 -33 16 -45 14 -20 23 -22 121
-22 l106 0 -22 -24 c-15 -16 -25 -42 -28 -70 -5 -42 -3 -48 30 -81 19 -19 42
-35 51 -35 13 0 16 -11 16 -55 l0 -55 -51 0 c-46 0 -55 -4 -86 -36 l-34 -36 2
-238 c1 -131 -3 -244 -7 -252 -5 -7 -11 98 -14 252 l-6 265 -2 -267 -2 -266
-37 -30 c-21 -17 -36 -33 -32 -36 10 -10 104 76 111 103 4 14 7 127 7 250 l-2
225 32 28 c24 22 41 28 76 28 l44 0 4 -57 3 -58 2 58 2 57 58 2 57 1 -55 6
-55 6 -3 52 c-3 50 -2 51 27 58 45 10 81 58 81 107 0 32 -7 47 -33 73 l-34 34
-148 0 c-94 1 -153 5 -161 12 -17 14 -18 63 -1 90 10 17 9 23 -10 38 l-22 18
27 30 c15 16 69 70 120 118 81 78 95 88 111 78 20 -12 87 -7 96 8 9 13 -16 22
-28 10 -16 -16 -59 -14 -85 5 -17 12 -22 12 -22 2z"/>
<path d="M4200 4285 c0 -2 20 -16 45 -31 25 -14 83 -67 130 -117 l85 -92 0
-258 c0 -205 -3 -265 -15 -293 -12 -29 -15 -115 -15 -507 0 -260 0 -476 0
-482 1 -5 1 -55 0 -109 l-1 -99 -75 -80 c-41 -43 -74 -83 -74 -89 0 -16 25 8
102 95 l68 77 0 94 c0 86 2 94 21 99 27 7 23 51 -6 55 -20 3 -20 12 -23 458
-3 426 -2 458 15 482 16 24 18 56 21 289 l3 261 -59 69 c-32 37 -79 87 -104
110 -52 47 -118 86 -118 68z"/>
<path d="M4395 4069 c-4 -5 0 -18 9 -28 14 -15 16 -51 16 -252 l0 -234 -90
-85 -90 -85 0 -485 0 -486 -60 -59 -61 -60 3 -100 3 -100 -59 -62 c-53 -56
-64 -63 -98 -63 -21 0 -38 -4 -38 -10 0 -5 17 -10 38 -10 34 0 46 8 115 78 70
71 77 81 77 117 0 37 7 47 75 115 l75 74 0 546 0 546 60 59 60 59 0 247 c0
206 -2 249 -15 259 -8 7 -12 16 -9 21 3 5 3 9 0 9 -3 0 -8 -5 -11 -11z m-100
-1189 l0 -539 -72 -73 c-67 -68 -73 -77 -73 -115 0 -23 -4 -45 -10 -48 -6 -4
-10 27 -10 86 l0 92 65 68 65 67 0 483 c0 435 2 484 17 501 9 10 17 18 17 18
1 0 2 -243 1 -540z"/>
<path d="M2534 4015 c-4 -8 1 -26 10 -40 12 -19 25 -25 52 -25 51 0 74 15 74
50 l0 30 -65 0 c-49 0 -67 -4 -71 -15z"/>
<path d="M3090 3920 c-61 -61 -22 -160 62 -160 54 0 88 35 88 90 0 56 -34 90
-90 90 -26 0 -47 -7 -60 -20z"/>
<path d="M4003 3892 c-26 -17 -33 -69 -33 -252 0 -190 -5 -215 -35 -190 -8 7
-22 10 -30 6 -16 -6 -21 -46 -5 -46 6 0 9 -63 9 -159 0 -134 -2 -160 -15 -165
-24 -9 -13 -50 14 -54 27 -4 40 23 24 49 -7 10 -12 53 -12 94 0 83 -2 81 72
69 l37 -6 -6 -147 c-4 -116 -9 -149 -21 -158 -20 -16 -86 -17 -114 -2 -16 9
-24 8 -36 -5 -28 -27 -3 -36 77 -27 108 11 111 16 111 202 l0 149 35 -18 35
-17 0 -158 0 -158 -55 -51 c-33 -30 -54 -59 -53 -68 2 -11 -87 -105 -244 -260
-229 -224 -248 -245 -248 -277 0 -20 4 -32 10 -28 6 3 10 18 10 33 0 22 46 73
257 280 142 140 250 251 241 248 -32 -10 -19 10 42 67 l60 55 0 180 c0 147 -3
182 -15 192 -21 17 -19 52 5 73 19 16 20 29 20 186 0 141 -3 172 -16 185 -8 9
-22 16 -29 16 -7 0 -21 -7 -29 -16 -13 -13 -16 -44 -16 -184 0 -158 1 -170 21
-189 28 -26 23 -75 -8 -79 -20 -3 -23 1 -23 27 0 16 -4 33 -10 36 -6 4 -10 -8
-10 -29 l0 -36 -50 0 -50 0 0 75 c0 73 1 76 27 86 15 6 31 16 35 22 4 7 8 102
8 212 0 110 5 207 10 215 7 11 34 16 107 18 119 4 134 -4 144 -74 l6 -49 2 51
c2 76 -12 84 -140 84 -57 0 -109 -4 -116 -8z"/>
<path d="M4197 3735 c-5 -27 -6 -214 -2 -416 4 -201 4 -392 0 -424 l-7 -59
-179 -180 c-134 -136 -179 -187 -179 -205 0 -17 -24 -49 -80 -107 -79 -80 -80
-82 -80 -132 0 -43 -4 -54 -26 -71 -15 -12 -35 -21 -44 -21 -23 0 -36 -17 -49
-64 -14 -54 -6 -58 14 -8 11 27 27 45 48 56 61 29 77 52 77 110 l0 54 75 70
c59 55 75 76 75 98 0 23 33 61 179 209 99 99 182 192 186 205 3 14 4 230 3
480 -2 289 -6 437 -11 405z"/>
<path d="M590 3715 c-53 -56 -15 -145 62 -145 79 0 117 86 63 144 -33 36 -92
36 -125 1z"/>
<path d="M840 3705 c-20 -24 -6 -28 15 -5 10 11 13 20 8 20 -6 0 -16 -7 -23
-15z"/>
<path d="M1300 3617 c0 -2 15 -16 33 -33 l32 -29 -29 33 c-28 30 -36 37 -36
29z"/>
<path d="M762 3283 c-2 -208 -10 -273 -33 -273 -13 0 -20 51 -18 132 1 48 -3
84 -10 91 -7 7 -11 54 -11 128 0 65 -3 120 -7 122 -11 7 -3 -246 8 -258 5 -5
9 -61 9 -125 0 -105 -2 -119 -20 -135 -20 -18 -21 -28 -18 -312 l3 -293 86
-86 85 -85 25 20 c27 23 20 28 -11 9 -19 -12 -27 -6 -94 67 l-73 79 -6 286
c-5 228 -4 288 7 298 11 11 14 -21 18 -186 4 -127 10 -206 18 -218 6 -10 35
-36 63 -57 29 -21 75 -59 104 -85 l52 -47 3 -76 c2 -70 5 -79 34 -115 l33 -39
196 -3 c132 -2 195 0 195 7 0 8 -64 11 -194 11 l-195 0 -25 33 c-21 28 -26 45
-27 98 -1 81 -4 88 -64 138 -27 23 -72 60 -100 82 -27 23 -55 51 -61 63 -8 13
-13 97 -15 223 l-4 202 28 29 27 28 -3 235 -2 234 -3 -222z"/>
<path d="M599 3404 c38 -43 41 -51 41 -104 0 -77 -16 -123 -39 -111 -33 18
-73 -34 -41 -54 11 -7 14 -287 4 -298 -4 -3 -6 -117 -5 -253 l2 -247 67 -73
c36 -40 68 -71 70 -69 2 2 -26 38 -62 80 l-66 76 2 222 c3 189 5 222 18 222
13 0 16 -34 20 -226 l5 -226 53 -70 54 -70 -1 -149 -2 -149 131 -142 131 -143
107 2 107 2 -104 5 -105 6 -123 133 -123 134 0 152 0 152 -50 59 c-28 33 -53
69 -55 80 -10 52 -12 444 -1 455 7 7 7 16 -1 29 -12 19 -20 288 -10 321 2 8 9
31 16 51 6 19 11 64 11 100 0 61 -2 66 -41 107 -54 57 -61 54 -10 -4z m11
-419 c0 -127 -2 -145 -16 -145 -13 0 -15 7 -10 31 3 17 6 83 6 145 0 69 4 114
10 114 6 0 10 -55 10 -145z"/>
<path d="M4488 3419 c-13 -7 -18 -23 -18 -57 0 -27 5 -53 10 -58 14 -14 14
-1182 0 -1199 -6 -7 -25 -16 -43 -20 l-32 -8 30 -5 c23 -3 35 2 52 23 l23 26
0 585 c0 512 2 584 15 584 13 0 15 -78 15 -638 0 -561 -2 -640 -16 -660 -14
-20 -24 -22 -103 -22 -59 0 -92 4 -99 13 -13 15 -19 98 -8 115 6 10 13 10 32
-2 13 -9 27 -16 31 -16 13 1 -41 40 -54 40 -7 0 -35 -28 -63 -62 -168 -207
-260 -305 -260 -275 0 23 -35 57 -59 57 -51 0 -70 -77 -26 -106 15 -10 32 -13
46 -9 29 10 191 166 237 230 20 27 51 67 69 88 l33 37 0 -49 c0 -63 22 -81 97
-81 l53 0 0 -57 c1 -32 7 -69 15 -83 10 -18 14 -60 15 -150 0 -179 -18 -231
-103 -288 -69 -47 -105 -47 -175 -2 -33 21 -65 35 -71 31 -11 -7 62 -61 102
-77 9 -3 14 -10 11 -15 -3 -5 0 -9 7 -9 7 0 37 -18 67 -41 30 -23 58 -37 62
-33 5 5 -13 25 -40 44 -51 37 -61 50 -35 50 26 0 88 36 122 72 55 57 62 87 63
274 1 99 6 174 12 182 7 8 7 12 -1 12 -6 0 -11 -4 -11 -10 0 -5 -4 -10 -9 -10
-5 0 -11 25 -13 55 -2 45 0 55 13 55 9 0 28 9 43 21 l26 20 3 657 c2 361 7
674 12 695 13 64 -29 105 -77 76z m-510 -1633 c6 -48 -50 -65 -70 -21 -14 32
5 57 41 53 20 -2 27 -9 29 -32z"/>
<path d="M1037 3403 c-12 -15 -16 -52 -18 -198 -3 -163 -2 -180 14 -183 24 -5
33 25 13 47 -13 14 -16 43 -16 163 0 185 -8 176 165 181 l130 3 -136 2 c-119
2 -138 0 -152 -15z"/>
<path d="M3702 2996 c-2 -63 0 -71 28 -103 36 -40 36 -47 9 -74 -15 -15 -20
-30 -17 -53 5 -29 -3 -39 -114 -140 -142 -132 -147 -147 -73 -215 24 -22 48
-41 52 -41 5 0 -13 20 -39 45 -28 26 -48 53 -48 65 0 14 41 61 117 135 107
103 120 112 142 103 54 -20 104 60 65 103 -9 10 -25 19 -36 19 -10 0 -18 6
-18 13 0 7 -12 26 -27 42 -23 24 -29 42 -34 100 l-6 70 -1 -69z"/>
<path d="M1020 2976 c0 -9 5 -16 10 -16 6 0 10 4 10 9 0 6 -4 13 -10 16 -5 3
-10 -1 -10 -9z"/>
<path d="M1082 2969 c2 -6 8 -10 13 -10 5 0 11 4 13 10 2 6 -4 11 -13 11 -9 0
-15 -5 -13 -11z"/>
<path d="M1033 2908 c-27 -13 -47 -60 -39 -93 8 -33 44 -65 73 -65 31 0 79 25
87 45 30 79 -45 150 -121 113z"/>
<path d="M515 2810 c5 -23 3 -30 -9 -30 -8 0 -17 -4 -20 -9 -4 -5 3 -7 14 -4
20 5 20 0 20 -223 0 -212 2 -231 20 -259 15 -22 20 -47 20 -93 0 -80 16 -110
79 -147 45 -26 51 -33 51 -63 l0 -34 -35 28 c-19 16 -51 42 -70 57 -33 27 -35
33 -35 86 0 69 -13 117 -40 146 -18 19 -20 37 -23 240 l-2 220 -3 -224 -2
-223 25 -30 c20 -24 25 -40 25 -87 0 -75 14 -113 51 -140 22 -16 28 -28 24
-42 -4 -11 -2 -19 4 -19 6 0 11 8 11 17 0 32 55 -34 68 -81 9 -34 34 -68 117
-157 59 -63 120 -126 136 -141 l29 -28 205 0 c176 0 205 -2 205 -15 0 -13 -30
-15 -210 -15 l-210 0 -29 28 c-104 97 -272 287 -280 315 -9 32 -9 32 -10 4 -1
-27 35 -71 241 -289 l64 -68 223 0 224 0 -7 -61 c-3 -33 -3 -71 0 -82 4 -19
62 -68 147 -127 52 -35 -8 22 -69 67 l-64 47 0 78 0 78 94 0 94 0 42 48 c73
82 85 110 15 35 l-67 -73 -89 0 c-70 0 -89 3 -89 14 0 8 6 17 13 20 10 5 10 7
0 12 -19 9 -17 154 2 180 8 10 15 38 15 62 0 61 -40 102 -102 102 -97 0 -144
-94 -90 -177 19 -30 82 -49 110 -34 39 21 43 14 40 -56 l-3 -68 -211 -3 -211
-2 -109 116 c-161 173 -157 166 -149 246 l6 67 -58 37 c-32 20 -61 41 -64 46
-5 8 -17 106 -22 175 0 7 -4 10 -8 8 -3 -3 -12 8 -19 24 -8 21 -11 101 -8 280
2 204 0 251 -10 251 -10 0 -12 -8 -7 -30z"/>
<path d="M1000 2680 c0 -15 5 -20 18 -18 9 2 17 10 17 18 0 8 -8 16 -17 18
-13 2 -18 -3 -18 -18z"/>
<path d="M1096 2691 c-9 -14 5 -42 18 -38 15 5 14 39 -1 44 -6 2 -14 0 -17 -6z"/>
<path d="M830 2630 c-11 -11 -20 -33 -20 -50 0 -24 8 -35 38 -54 21 -13 46
-35 54 -47 64 -94 114 -112 167 -58 29 28 31 29 31 9 0 -27 16 -58 46 -90 12
-14 30 -38 38 -55 9 -16 16 -23 16 -15 0 18 -22 53 -58 92 -23 25 -25 35 -26
128 -1 55 1 100 4 100 4 0 11 -5 16 -10 14 -14 44 -2 44 16 0 20 -27 29 -45
14 -12 -10 -15 -9 -15 6 0 14 -3 15 -12 6 -7 -7 -42 -12 -86 -12 -46 0 -71 -4
-67 -10 3 -5 37 -10 76 -10 l69 0 0 -61 c0 -56 -3 -64 -34 -95 -50 -50 -73
-45 -134 25 l-51 58 25 22 c31 27 32 74 2 95 -30 21 -54 20 -78 -4z m83 -22
c18 -28 -7 -68 -42 -68 -46 0 -64 56 -27 83 18 12 58 3 69 -15z"/>
<path d="M4002 2588 c-30 -30 0 -78 37 -58 32 17 21 70 -14 70 -6 0 -16 -5
-23 -12z"/>
<path d="M4087 2582 c-15 -16 -15 -20 -1 -40 8 -12 21 -22 29 -22 15 0 45 27
45 40 0 13 -30 40 -44 40 -7 0 -20 -8 -29 -18z"/>
<path d="M3100 2398 c0 -101 -5 -249 -10 -330 -8 -133 -11 -153 -39 -210 -16
-35 -53 -91 -81 -126 -29 -36 -42 -58 -31 -52 28 15 117 126 142 178 12 24 25
76 30 115 12 105 11 607 -1 607 -6 0 -10 -68 -10 -182z"/>
<path d="M3017 2405 c-13 -206 -30 -276 -130 -537 -14 -38 -24 -68 -21 -68 10
0 81 164 112 256 39 117 54 222 50 364 l-3 115 -8 -130z"/>
<path d="M2866 2064 c-32 -115 -83 -278 -112 -363 -30 -85 -53 -159 -51 -164
1 -4 28 56 59 135 67 170 176 558 166 589 -2 6 -30 -82 -62 -197z"/>
<path d="M2756 1961 c-154 -325 -228 -491 -220 -491 17 0 300 610 292 630 -2
4 -34 -59 -72 -139z"/>
<path d="M3285 1957 c-102 -103 -157 -171 -254 -310 -144 -209 -185 -253 -366
-387 -147 -110 -186 -157 -52 -64 248 174 276 202 474 476 128 176 303 388
321 388 4 0 24 -27 44 -61 l38 -60 -118 -117 c-203 -202 -399 -445 -528 -655
l-48 -78 23 -87 c25 -95 39 -122 119 -229 38 -51 52 -78 48 -91 -4 -11 -123
-165 -266 -343 -143 -178 -260 -327 -260 -331 0 -5 8 -8 18 -8 10 1 108 115
250 294 254 317 292 370 292 397 0 10 -30 57 -66 105 -46 60 -62 89 -54 94 7
4 53 13 104 19 170 22 153 14 177 95 34 113 175 375 281 520 12 17 375 -255
601 -449 l47 -40 -128 -1 c-150 0 -220 -16 -342 -76 -67 -32 -102 -59 -165
-122 -125 -125 -249 -322 -316 -502 -32 -85 -17 -74 19 14 103 251 304 500
473 585 117 59 182 72 350 72 l147 0 54 -37 c80 -55 201 -180 258 -264 112
-168 153 -301 153 -494 0 -87 3 -113 8 -85 13 66 10 199 -6 274 -48 229 -207
461 -408 594 -29 20 -112 86 -183 148 -136 118 -300 244 -446 343 -49 33 -88
63 -88 68 0 11 118 140 143 157 23 15 75 -14 252 -140 69 -49 131 -89 136 -89
37 0 -53 75 -241 201 -99 66 -107 74 -133 132 -18 40 -31 57 -37 51 -7 -7 -5
-23 5 -47 8 -20 15 -41 15 -46 0 -6 -33 -49 -74 -96 -187 -214 -321 -428 -396
-635 l-28 -75 -93 -11 c-52 -7 -112 -13 -134 -15 l-40 -4 -17 70 c-10 38 -15
78 -12 87 10 33 139 221 223 326 126 158 279 328 381 424 l92 86 -23 43 c-13
23 -40 59 -59 80 l-35 39 -130 -133z"/>
<path d="M3658 1979 c42 -39 46 -41 89 -35 25 3 57 6 71 6 14 0 22 3 19 7 -4
3 -37 5 -75 4 -58 -2 -71 1 -87 19 -11 12 -29 26 -40 32 -11 5 0 -9 23 -33z"/>
<path d="M3680 1885 c0 -16 54 -109 82 -141 37 -41 278 -237 278 -226 0 11
-54 60 -124 113 -104 77 -162 136 -195 198 -29 55 -41 71 -41 56z"/>
<path d="M4432 1632 c-2 -72 -18 -108 -62 -146 -84 -70 -234 -49 -259 36 l-9
33 -1 -31 c-1 -21 8 -39 29 -59 28 -26 39 -30 105 -33 66 -4 80 -1 119 22 68
40 88 79 83 168 l-3 73 -2 -63z"/>
<path d="M4200 1660 c-25 -25 -25 -51 -2 -80 36 -44 112 -17 112 40 0 55 -70
80 -110 40z m78 -6 c26 -18 28 -41 5 -66 -31 -35 -83 -17 -83 28 0 20 32 54
50 54 3 0 16 -7 28 -16z"/>
<path d="M3608 1291 c-112 -120 -315 -400 -424 -584 -75 -126 -85 -154 -16
-47 69 108 279 394 395 540 55 69 104 131 110 138 6 8 6 12 -1 12 -5 0 -34
-26 -64 -59z"/>
<path d="M4460 1163 c23 -27 60 -81 82 -120 22 -40 42 -73 44 -73 2 0 -13 35
-35 78 -39 77 -103 162 -123 162 -5 0 9 -21 32 -47z"/>
<path d="M4416 1140 c15 -22 28 -40 30 -40 2 0 -6 18 -17 40 -12 22 -25 40
-30 40 -5 0 3 -18 17 -40z"/>
<path d="M2684 878 c-54 -90 -136 -224 -183 -298 -136 -218 -200 -327 -263
-455 -49 -99 -56 -121 -43 -123 9 -2 17 -2 18 0 1 1 33 67 71 145 39 78 73
140 77 137 4 -2 11 1 15 7 5 8 3 9 -6 4 -22 -14 -6 17 122 235 67 113 153 259
191 325 38 66 78 135 89 153 11 17 17 32 14 32 -2 0 -49 -73 -102 -162z"/>
<path d="M1821 973 c-5 -10 -23 -72 -41 -138 -17 -66 -58 -212 -90 -325 -52
-183 -96 -366 -114 -472 -6 -34 -5 -38 14 -38 11 0 20 4 20 9 0 62 183 859
219 954 12 30 7 37 -8 10z"/>
<path d="M4000 929 c-266 -38 -566 -340 -694 -697 -39 -109 -31 -111 12 -2 68
170 162 311 297 447 156 156 300 228 455 228 79 0 88 -2 130 -31 184 -128 344
-407 379 -659 14 -96 26 -115 16 -25 -26 242 -135 470 -303 632 -103 100 -170
125 -292 107z"/>
<path d="M2437 687 c-25 -56 -80 -175 -121 -263 -88 -190 -179 -414 -171 -422
11 -12 26 17 66 129 23 62 80 200 127 304 117 262 153 347 149 351 -2 2 -24
-43 -50 -99z"/>
<path d="M1461 684 c0 -11 3 -14 6 -6 3 7 2 16 -1 19 -3 4 -6 -2 -5 -13z"/>
<path d="M2496 495 c-9 -14 -23 -37 -32 -52 l-16 -28 20 24 c24 29 55 81 49
81 -3 0 -12 -11 -21 -25z"/>
<path d="M2434 398 c-4 -7 -14 -24 -22 -38 -14 -24 -13 -24 3 -5 20 24 37 55
31 55 -3 0 -8 -6 -12 -12z"/>
</g>
</svg>